# xmcd
#
# Track frame offsets:
#	150
#	16893
#	27187
#	43198
#	57445
#	68273
#	81090
#	98415
#	117420
#	141886
#	154139
#	176197
#
# Disc length: 3015 seconds
#
# Revision: 1
# Processed by: cddbd v1.5.1PL2 Copyright (c) Steve Scherf et al.
# Submitted via: audiograbber 1.83.01
#
DISCID=960bc50c
DTITLE=Doni - Estrada
DYEAR=1900
DGENRE=
TTITLE0=Veselina
TTITLE1=Bez radio ne moga
TTITLE2=Spri do men
TTITLE3=Dobar vecher, Leka nosht
TTITLE4=Zvan
TTITLE5=Tazi vecher az sam hubava
TTITLE6=Julia
TTITLE7=Kraiat na vsiaka igra
TTITLE8=Hubavata Jiji
TTITLE9=Snega na spomena
TTITLE10=Zamalchi, zamalchi
TTITLE11=Data Track
EXTD=
EXTT0=
EXTT1=
EXTT2=
EXTT3=
EXTT4=
EXTT5=
EXTT6=
EXTT7=
EXTT8=
EXTT9=
EXTT10=
EXTT11=
PLAYORDER=
